<?xml version="1.0" encoding="UTF-8"?>
<svg version="1.1" xmlns="http://www.w3.org/2000/svg" width="1080" height="1080">
<path d="M0 0 C356.4 0 712.8 0 1080 0 C1080 356.4 1080 712.8 1080 1080 C723.6 1080 367.2 1080 0 1080 C0 723.6 0 367.2 0 0 Z " fill="#FEFEFE" transform="translate(0,0)"/>
<path d="M0 0 C1.23266602 -0.00580078 1.23266602 -0.00580078 2.49023438 -0.01171875 C13.73688989 0.00570442 23.98595031 1.13121163 34.75 4.5 C35.8745459 4.8515918 36.9990918 5.20318359 38.15771484 5.56542969 C66.64762448 14.88090954 87.67325874 33.12010289 108.3125 54.125 C110.8318925 51.61463758 113.34040216 49.09631553 115.8203125 46.546875 C121.97862307 40.25988331 128.3242734 34.49983737 135.3125 29.125 C136.83037109 27.93970703 136.83037109 27.93970703 138.37890625 26.73046875 C152.73829329 15.82001255 168.82728081 7.57823664 186.3125 3.125 C186.99715332 2.94678711 187.68180664 2.76857422 188.38720703 2.58496094 C218.87589039 -5.25075069 251.57046676 2.63485498 278.3125 18.125 C314.81456987 40.13146658 340.12507999 74.13603616 350.6875 115.5 C355.76835054 137.20444775 355.89694136 160.14694886 352.3125 182.125 C352.1671582 183.03475586 352.02181641 183.94451172 351.87207031 184.88183594 C347.81412661 209.38339222 339.79774071 232.65418451 329.3125 255.125 C328.69834229 256.44395264 328.69834229 256.44395264 328.07177734 257.78955078 C314.26842213 287.08808139 296.06899589 313.36546561 275.3125 338.125 C275.580625 338.785 275.84875 339.445 276.125 340.125 C276.516875 341.115 276.90875 342.105 277.3125 343.125 C277.84875 344.259375 278.385 345.39375 278.9375 346.5625 C282.22371141 355.41515114 281.14652551 365.6530404 277.3125 374.125 C276.9721875 374.93453125 276.631875 375.7440625 276.28125 376.578125 C272.18528848 385.60031051 265.85537462 391.82717248 258.46850586 398.22729492 C254.16071953 402.01898591 250.03227151 406.00600229 245.87304688 409.95898438 C245.19693359 410.59771484 244.52082031 411.23644531 243.82421875 411.89453125 C243.22053467 412.46792236 242.61685059 413.04131348 241.99487305 413.63208008 C239.38563819 415.9474873 237.49812694 417.08573276 234.0625 417.8125 C229.87139892 419.27938538 228.43887128 420.78033164 225.5078125 423.94140625 C220.57433677 428.8485467 214.83109592 432.90354914 209.3125 437.125 C208.30703125 437.90230469 207.3015625 438.67960937 206.265625 439.48046875 C185.53295979 455.31013881 156.61832999 475.91790976 129.3125 475.125 C129.42744557 478.12568447 129.55417205 481.12512109 129.6875 484.125 C129.73390625 485.38376953 129.73390625 485.38376953 129.78125 486.66796875 C130.22243659 496.1534805 132.22053004 505.98020545 137.3125 514.125 C139.77654667 515.85550646 142.14266571 516.93094929 144.92578125 518.0625 C148.73434362 519.75796475 150.22161558 521.52002686 152.3125 525.125 C152.38035742 529.06073024 151.91009935 531.21664898 149.75 534.5 C146.38056706 536.74628862 143.36661588 537.60053248 139.3125 537.125 C135.56101913 534.35216631 133.56054295 531.5971539 132.3125 527.125 C132.23 525.949375 132.1475 524.77375 132.0625 523.5625 C131.66878186 519.66906506 130.27855129 516.87473369 128.4375 513.4375 C122.1208517 501.27491517 121.90725839 489.4979732 122.3125 476.125 C121.22453125 476.09921875 120.1365625 476.0734375 119.015625 476.046875 C105.45764684 475.58400272 90.38993472 473.20243472 80.3125 463.125 C78.31417749 462.59316629 78.31417749 462.59316629 76.0625 462.25 C71.01826489 461.21028648 67.1518016 459.4441194 63.875 455.3125 C63.01160213 451.9548416 63.47740361 449.46538557 64.3125 446.125 C65.8125 443.6875 65.8125 443.6875 68.3125 442.125 C71.49583669 441.37455561 74.13866538 441.29991301 77.3125 442.125 C81.27078474 445.12091107 84.01840043 449.33683158 85.3125 454.125 C85.3125 455.445 85.3125 456.765 85.3125 458.125 C98.64807144 464.83941359 109.44603173 467.38069724 124.3125 468.125 C124.43753906 467.08859375 124.56257813 466.0521875 124.69140625 464.984375 C130.01772776 431.8874841 158.80970586 402.61688386 181.4375 379.875 C182.08928223 379.21854492 182.74106445 378.56208984 183.41259766 377.88574219 C184.02151855 377.27891602 184.63043945 376.67208984 185.2578125 376.046875 C185.79937988 375.50643555 186.34094727 374.96599609 186.89892578 374.40917969 C188.3125 373.125 188.3125 373.125 190.3125 372.125 C190.6528125 370.57425781 190.6528125 370.57425781 191 368.9921875 C192.29485856 364.07122309 195.57766528 361.49859463 199.3125 358.25 C199.99022461 357.64140137 200.66794922 357.03280273 201.36621094 356.40576172 C202.7214451 355.19055769 204.08170567 353.98093275 205.44726562 352.77734375 C207.8572504 350.6424253 210.20381687 348.44129271 212.5625 346.25 C226.37624448 333.98631265 237.79449792 328.15900292 256.2590332 328.94262695 C258.3125 329.125 258.3125 329.125 262.0625 329.95703125 C265.41205348 330.49141459 265.41205348 330.49141459 267.76171875 328.16015625 C268.50035156 327.17917969 269.23898437 326.19820312 270 325.1875 C270.62165039 324.38082886 270.62165039 324.38082886 271.25585938 323.55786133 C272.15472899 322.38383774 273.04218027 321.20100459 273.91943359 320.01074219 C275.34382103 318.08260188 276.80215455 316.18464336 278.26953125 314.2890625 C289.06254561 300.25310118 298.64834028 285.5620087 307.3125 270.125 C307.7573877 269.33383789 308.20227539 268.54267578 308.66064453 267.72753906 C316.48141875 253.67514972 322.65632624 239.16722661 328.3125 224.125 C328.66965088 223.19236328 329.02680176 222.25972656 329.39477539 221.29882812 C331.67387902 215.23260241 333.44147867 209.19182731 334.875 202.875 C335.08479492 201.9689502 335.29458984 201.06290039 335.51074219 200.12939453 C336.12240834 197.46360451 336.72097241 194.79532453 337.3125 192.125 C337.5587915 191.01560059 337.5587915 191.01560059 337.81005859 189.88378906 C346.33729249 150.92585345 341.92537479 109.3331705 320.17626953 75.34960938 C299.73055502 44.45537687 271.16144752 23.62181935 235.15625 14.30859375 C205.52324825 8.61300336 177.29836563 16.13285478 152.3125 32.125 C140.50652869 40.2515643 130.34043661 49.95739226 120.29296875 60.109375 C119.53802124 60.867948 119.53802124 60.867948 118.76782227 61.6418457 C117.37625676 63.06002393 116.01917579 64.51179454 114.6640625 65.96484375 C112.3125 68.125 112.3125 68.125 108.5 68.9375 C103.68555994 68.62076052 101.34439851 65.83392858 98.234375 62.3984375 C97.60015625 61.64820313 96.9659375 60.89796875 96.3125 60.125 C76.17499683 36.50577899 47.42282461 17.70110751 16.3125 13.125 C2.52276253 12.33980228 -11.34365112 12.301324 -24.6875 16.125 C-25.84121094 16.43050781 -26.99492187 16.73601562 -28.18359375 17.05078125 C-61.60726336 26.9447631 -89.24486683 51.42554841 -106.6875 81.125 C-109.68222151 86.64585719 -112.2687498 92.33175304 -114.6875 98.125 C-115.09484375 99.09695313 -115.5021875 100.06890625 -115.921875 101.0703125 C-133.52676855 146.43676896 -123.21114386 197.76102687 -104.6875 241.125 C-89.99918314 274.22993735 -70.37581882 303.04978984 -47.6875 331.125 C-45.54606716 330.66988564 -43.73438002 330.14887142 -41.77734375 329.15234375 C-32.42056545 324.41451953 -20.93064841 324.67489564 -10.88671875 327.0078125 C0.86044083 331.17660474 9.05203312 338.37172748 15.3125 349.125 C16.64349874 352.41334983 17.56564672 355.66231662 18.3125 359.125 C18.49296875 359.76566406 18.6734375 360.40632813 18.859375 361.06640625 C21.25262575 371.93919199 18.34620027 382.69015909 12.5 391.9375 C5.2744481 401.87039268 -4.29926273 408.95162504 -16.6875 411.125 C-29.22628895 412.22278727 -40.38508673 409.74815893 -50.47265625 402.03125 C-58.49638009 395.12547004 -64.84010118 385.94652901 -65.88037109 375.1171875 C-66.40881331 361.23036667 -64.68111172 351.82505134 -56.6875 340.125 C-57.40292969 339.32320312 -58.11835938 338.52140625 -58.85546875 337.6953125 C-71.08624066 323.8095448 -81.71843989 308.69925694 -91.6875 293.125 C-92.22721436 292.28316162 -92.22721436 292.28316162 -92.77783203 291.42431641 C-105.43616527 271.47487565 -115.49490754 250.25428302 -123.6875 228.125 C-124.14527832 226.9181958 -124.14527832 226.9181958 -124.61230469 225.68701172 C-129.23490083 213.41239653 -131.78676797 200.85867225 -134.15283203 187.97924805 C-134.66683243 185.23533087 -135.22283017 182.50307548 -135.7890625 179.76953125 C-143.58920405 140.93132646 -133.58911377 98.00678362 -112.08691406 65.16015625 C-89.6143684 32.47851971 -55.76346054 8.88756455 -16.6875 1.125 C-11.08236887 0.13624439 -5.67076227 -0.02607247 0 0 Z " fill="#3CB6A5" transform="translate(456.6875,235.875)"/>
<path d="M0 0 C0.90992958 0.45715897 0.90992958 0.45715897 1.83824158 0.92355347 C3.79860986 1.91119941 5.75284053 2.91035094 7.70703125 3.91015625 C9.0562056 4.59323008 10.40565391 5.27576307 11.75537109 5.95776367 C20.89362834 10.58607363 29.98748425 15.29937366 39.02734375 20.1171875 C40.17976562 20.72949219 41.3321875 21.34179688 42.51953125 21.97265625 C43.59847656 22.62814453 43.59847656 22.62814453 44.69921875 23.296875 C47.30916231 24.26580254 48.84254531 23.70309099 51.51953125 22.97265625 C52.73125 22.67488281 53.94296875 22.37710937 55.19140625 22.0703125 C56.55083496 21.72547208 57.91020787 21.38041163 59.26953125 21.03515625 C60.71216106 20.67676708 62.15486874 20.31869125 63.59765625 19.9609375 C65.74521482 19.42606814 67.87489953 18.87152157 70.00390625 18.265625 C72.17214001 17.68154653 74.29977302 17.315517 76.51953125 16.97265625 C77.7209375 16.71355469 78.92234375 16.45445312 80.16015625 16.1875 C84.49426698 15.51088436 88.41712455 15.19447653 92.51953125 16.97265625 C97.52377817 21.4626381 100.66203593 27.67534877 103.99023438 33.43359375 C106.23509229 37.16068864 108.84422281 40.54826145 111.51953125 43.97265625 C116.47068571 50.44799603 121.08038034 57.11817819 125.63989258 63.87329102 C129.81745598 70.03026427 134.1986437 76.00385711 138.73828125 81.8984375 C140.98401622 84.83088481 142.93921646 87.63774388 144.51953125 90.97265625 C136.20877381 94.87588691 127.76094759 98.32834464 119.20703125 101.66015625 C117.95889168 102.15015457 116.71084436 102.64038795 115.46289062 103.13085938 C110.17989689 105.19786987 104.91493137 107.21532047 99.51953125 108.97265625 C99.84953125 109.63265625 100.17953125 110.29265625 100.51953125 110.97265625 C100.58903666 112.51289621 100.60405482 114.05600613 100.58203125 115.59765625 C100.57300781 116.41492188 100.56398438 117.2321875 100.5546875 118.07421875 C100.53728516 119.01394531 100.53728516 119.01394531 100.51953125 119.97265625 C101.71328369 119.62485107 101.71328369 119.62485107 102.93115234 119.27001953 C105.93085323 118.39821104 108.93161531 117.53017723 111.93310547 116.66455078 C113.85205873 116.10993173 115.7697948 115.55110673 117.6875 114.9921875 C135.11896307 109.97265625 135.11896307 109.97265625 142.51953125 109.97265625 C142.15859375 109.50214844 141.79765625 109.03164063 141.42578125 108.546875 C140.96171875 107.92425781 140.49765625 107.30164063 140.01953125 106.66015625 C139.55546875 106.04527344 139.09140625 105.43039062 138.61328125 104.796875 C137.51953125 102.97265625 137.51953125 102.97265625 137.51953125 99.97265625 C140.81953125 98.98265625 144.11953125 97.99265625 147.51953125 96.97265625 C149.1915035 99.76126711 150.85727244 102.55326441 152.51953125 105.34765625 C152.99648438 106.14171875 153.4734375 106.93578125 153.96484375 107.75390625 C154.64160156 108.89472656 154.64160156 108.89472656 155.33203125 110.05859375 C155.75097656 110.76032715 156.16992188 111.46206055 156.6015625 112.18505859 C157.51953125 113.97265625 157.51953125 113.97265625 157.51953125 115.97265625 C156.21886719 116.18019531 154.91820312 116.38773437 153.578125 116.6015625 C142.27549569 118.454792 131.00982674 120.54135203 119.80374146 122.91036987 C118.40760506 123.20154575 117.00949597 123.48342033 115.60958862 123.75588989 C113.63034878 124.14357908 111.65863661 124.56911164 109.6875 124.99609375 C108.54563232 125.23247559 107.40376465 125.46885742 106.22729492 125.71240234 C103.20504377 126.75793952 103.20504377 126.75793952 102.1340332 130.09619141 C101.93124756 131.0454248 101.72846191 131.9946582 101.51953125 132.97265625 C98.54953125 132.97265625 95.57953125 132.97265625 92.51953125 132.97265625 C92.51953125 132.31265625 92.51953125 131.65265625 92.51953125 130.97265625 C91.85953125 130.97265625 91.19953125 130.97265625 90.51953125 130.97265625 C90.18953125 131.63265625 89.85953125 132.29265625 89.51953125 132.97265625 C87.68823805 133.16359677 85.85690069 133.35411971 84.02539062 133.54296875 C78.88430409 134.42452685 74.10000757 136.55965967 69.26953125 138.47265625 C68.12436035 138.92044434 66.97918945 139.36823242 65.79931641 139.82958984 C45.18400539 147.97408746 25.33794502 157.5041639 6.08007812 168.46826172 C5.26990234 168.92346191 4.45972656 169.37866211 3.625 169.84765625 C2.90465576 170.25757813 2.18431152 170.6675 1.44213867 171.08984375 C-0.48046875 171.97265625 -0.48046875 171.97265625 -3.48046875 171.97265625 C20.21383647 152.42917822 48.45726725 139.42689076 76.84375 128.21484375 C77.83165527 127.81491211 78.81956055 127.41498047 79.83740234 127.00292969 C82.51953125 125.97265625 82.51953125 125.97265625 84.76806641 125.35644531 C86.9270851 124.80939404 86.9270851 124.80939404 89.51953125 122.97265625 C90.69898081 119.67981745 91.20014272 116.4468213 91.51953125 112.97265625 C45.95982712 132.7278555 45.95982712 132.7278555 5.33203125 160.64453125 C3.51953125 161.97265625 3.51953125 161.97265625 0.51953125 161.97265625 C7.94048906 154.09002595 15.89675107 147.47177931 24.51953125 140.97265625 C25.10863281 140.52277344 25.69773437 140.07289063 26.3046875 139.609375 C40.10310637 129.08618523 54.68389664 119.93897201 69.89453125 111.59765625 C71.1940271 110.88428101 71.1940271 110.88428101 72.51977539 110.15649414 C79.41562003 106.43673581 86.36796507 103.2733791 93.51953125 99.97265625 C93.84953125 88.09265625 94.17953125 76.21265625 94.51953125 63.97265625 C84.86931239 68.20048835 84.86931239 68.20048835 75.22387695 72.43920898 C74.01820068 72.96458252 72.81252441 73.48995605 71.5703125 74.03125 C70.94813843 74.30682739 70.32596436 74.58240479 69.68493652 74.86633301 C66.31870801 76.32581202 63.1503668 77.41522507 59.51953125 77.97265625 C59.54309692 79.44859253 59.54309692 79.44859253 59.56713867 80.9543457 C59.62144103 84.60514133 59.6558821 88.25590126 59.68432617 91.90698242 C59.69941219 93.48712161 59.71988375 95.06721894 59.74584961 96.6472168 C59.78224251 98.9185621 59.79925887 101.18935384 59.8125 103.4609375 C59.82798386 104.16728836 59.84346771 104.87363922 59.85942078 105.60139465 C59.8604127 108.4925849 59.83228755 110.49753883 58.21777344 112.95019531 C54.58898735 115.13497912 49.75836537 113.26386537 45.86279297 112.34814453 C41.89031255 111.35008523 37.93329394 110.29826705 33.97851562 109.23242188 C19.28317919 105.40916779 4.98488046 104.59386945 -10.10546875 104.66015625 C-10.98853699 104.6623114 -11.87160522 104.66446655 -12.78143311 104.66668701 C-31.41633947 104.73965591 -48.32969627 106.58641757 -66.20361328 112.07861328 C-70.93921548 113.49867537 -74.59842036 114.57127242 -79.48046875 112.97265625 C-80.9865339 109.96052596 -80.60207206 106.85983003 -80.578125 103.55859375 C-80.57671005 102.82895416 -80.5752951 102.09931458 -80.57383728 101.3475647 C-80.56823406 99.0142204 -80.5556811 96.68097161 -80.54296875 94.34765625 C-80.53795416 92.76692847 -80.53339118 91.18619918 -80.52929688 89.60546875 C-80.51826359 85.72782771 -80.50099686 81.85025818 -80.48046875 77.97265625 C-81.2145697 77.8427681 -81.94867065 77.71287994 -82.70501709 77.57905579 C-85.27256847 77.01807972 -87.46861147 76.27980168 -89.88769531 75.27026367 C-91.14359467 74.74918282 -91.14359467 74.74918282 -92.42486572 74.21757507 C-93.31462097 73.84155655 -94.20437622 73.46553802 -95.12109375 73.078125 C-96.04388123 72.68949783 -96.9666687 72.30087067 -97.91741943 71.90046692 C-99.86179798 71.07855838 -101.80499252 70.25384396 -103.74707031 69.42651367 C-106.7278951 68.16124868 -109.71713972 66.91748741 -112.70703125 65.67382812 C-114.59561034 64.87240804 -116.48365075 64.06971708 -118.37109375 63.265625 C-119.26894592 62.89567917 -120.1667981 62.52573334 -121.09185791 62.14457703 C-121.9165155 61.78773331 -122.7411731 61.43088959 -123.59082031 61.06323242 C-124.31964417 60.75536301 -125.04846802 60.44749359 -125.79937744 60.1302948 C-127.48046875 58.97265625 -127.48046875 58.97265625 -128.22357178 56.84199524 C-128.30834778 56.22511337 -128.39312378 55.60823151 -128.48046875 54.97265625 C-117.52847608 49.1271951 -106.50951599 43.42415863 -95.41796875 37.84765625 C-94.27021973 37.26733643 -93.1224707 36.6870166 -91.93994141 36.08911133 C-90.86921387 35.55310303 -89.79848633 35.01709473 -88.6953125 34.46484375 C-87.7374585 33.9838623 -86.77960449 33.50288086 -85.79272461 33.00732422 C-83.48046875 31.97265625 -83.48046875 31.97265625 -81.48046875 31.97265625 C-81.48046875 31.31265625 -81.48046875 30.65265625 -81.48046875 29.97265625 C-82.61742187 29.83988281 -83.754375 29.70710938 -84.92578125 29.5703125 C-87.91716866 29.19721161 -90.88028365 28.74963462 -93.84765625 28.21875 C-94.58886719 28.08662109 -95.33007812 27.95449219 -96.09375 27.81835938 C-97.59468806 27.54746468 -99.09471458 27.27146702 -100.59375 26.99023438 C-102.88469857 26.58723389 -105.17340432 26.26886898 -107.48046875 25.97265625 C-108.32109863 25.832229 -109.16172852 25.69180176 -110.02783203 25.54711914 C-112.78255061 25.26715958 -114.80317535 25.24640771 -117.48046875 25.97265625 C-120.59183629 28.69794455 -122.50815161 31.99986531 -124.60546875 35.53515625 C-125.89254516 37.56115892 -127.1816759 39.58585771 -128.47265625 41.609375 C-129.1284668 42.66044434 -129.78427734 43.71151367 -130.45996094 44.79443359 C-133.72184622 49.92532081 -137.22936147 54.8783696 -140.73046875 59.84765625 C-142.05973405 61.75180865 -143.38788295 63.65674093 -144.71484375 65.5625 C-145.34712891 66.46983887 -145.97941406 67.37717773 -146.63085938 68.31201172 C-150.94172519 74.51314895 -155.21223989 80.74212726 -159.48046875 86.97265625 C-158.80387207 87.1435376 -158.12727539 87.31441895 -157.43017578 87.49047852 C-150.85996374 89.2073436 -144.62224706 91.30296048 -138.35546875 93.91015625 C-137.4224292 94.2963916 -136.48938965 94.68262695 -135.52807617 95.08056641 C-48.04335491 131.84688392 -48.04335491 131.84688392 -33.48046875 160.97265625 C-36.17068125 159.68469806 -38.62079571 158.27350724 -41.0703125 156.57421875 C-82.05839884 128.48287436 -128.18962287 109.42609638 -174.48046875 91.97265625 C-173.87239211 88.8521723 -172.87852421 86.8273263 -170.99609375 84.27734375 C-170.47974365 83.57085693 -169.96339355 82.86437012 -169.43139648 82.13647461 C-168.87009033 81.38116455 -168.30878418 80.62585449 -167.73046875 79.84765625 C-166.53893086 78.22145062 -165.34752835 76.59514577 -164.15625 74.96875 C-163.54475098 74.13843262 -162.93325195 73.30811523 -162.30322266 72.45263672 C-159.48672037 68.62059409 -156.70138769 64.76626332 -153.91796875 60.91015625 C-153.38010742 60.16620605 -152.84224609 59.42225586 -152.28808594 58.65576172 C-149.15368127 54.31414949 -146.04287967 49.95708443 -142.96362305 45.57617188 C-141.98014735 44.18133622 -140.99077269 42.79063997 -139.99536133 41.40429688 C-137.30412562 37.64387978 -134.75939185 33.84305545 -132.33203125 29.90625 C-124.62857315 17.75109775 -124.62857315 17.75109775 -119.07421875 15.73828125 C-115.31359064 15.65358242 -112.14686645 16.14373155 -108.48046875 16.97265625 C-107.27390625 17.15828125 -106.06734375 17.34390625 -104.82421875 17.53515625 C-97.32180554 18.79606603 -90.14106411 20.85769574 -82.93408203 23.25854492 C-81.12531938 23.85812574 -79.30304594 24.41648012 -77.48046875 24.97265625 C-76.5471875 25.28589844 -75.61390625 25.59914063 -74.65234375 25.921875 C-69.54291082 26.00367627 -65.72573452 23.52784915 -61.29296875 21.16015625 C-60.32262695 20.65822754 -59.35228516 20.15629883 -58.35253906 19.63916016 C-55.3863256 18.09992279 -52.43249299 16.53890383 -49.48046875 14.97265625 C-47.80244067 14.0904658 -46.12407639 13.20891444 -44.4453125 12.328125 C-41.33276447 10.69118363 -38.22079641 9.05314427 -35.109375 7.4140625 C-34.35285645 7.01590332 -33.59633789 6.61774414 -32.81689453 6.20751953 C-31.2112764 5.35890756 -29.60821533 4.50544529 -28.00732422 3.64794922 C-25.56862696 2.34499219 -23.11971818 1.06334568 -20.66796875 -0.21484375 C-19.93288086 -0.61396973 -19.19779297 -1.0130957 -18.44042969 -1.42431641 C-17.74594727 -1.78187012 -17.05146484 -2.13942383 -16.3359375 -2.5078125 C-15.43331177 -2.98577271 -15.43331177 -2.98577271 -14.51245117 -3.47338867 C-9.26430515 -4.90412799 -4.60027268 -2.33050505 0 0 Z " fill="#111212" transform="translate(580.48046875,336.02734375)"/>
<path d="M0 0 C10.72867954 0.48563641 21.07169272 1.81016963 31.625 3.75 C32.37066223 3.88549255 33.11632446 4.02098511 33.88458252 4.1605835 C38.92849507 5.07928413 43.96574038 6.02991404 49 7 C49.99837891 7.19045898 50.99675781 7.38091797 52.02539062 7.57714844 C89.28440374 14.91348473 129.15437876 30.13515326 161.78125 49.359375 C162.73773437 49.92269531 163.69421875 50.48601562 164.6796875 51.06640625 C166.51930299 52.16457007 168.34815535 53.28102981 170.1640625 54.41796875 C170.98648438 54.91425781 171.80890625 55.41054688 172.65625 55.921875 C173.37619141 56.37143555 174.09613281 56.82099609 174.83789062 57.28417969 C177.02300438 58.2297622 177.02300438 58.2297622 179.36938477 57.34594727 C182.41681571 55.78673735 185.43510558 54.19498629 188.43359375 52.54296875 C189.71890226 51.84104554 191.00473322 51.14007836 192.29101562 50.43994141 C192.96559814 50.0726593 193.64018066 49.7053772 194.33520508 49.32696533 C227.01063724 31.61654717 260.88871464 18.51703403 296.9375 9.5 C297.76763611 9.29194733 298.59777222 9.08389465 299.45306396 8.86953735 C314.68501717 5.08416102 329.88081537 1.96665505 345.5625 0.8125 C346.58279297 0.73064453 347.60308594 0.64878906 348.65429688 0.56445312 C351.10239724 0.36906483 353.5507913 0.18085765 356 0 C358.29514345 5.84218333 360.109759 11.67736545 361.6875 17.75 C361.91244141 18.58660156 362.13738281 19.42320312 362.36914062 20.28515625 C362.58119141 21.09339844 362.79324219 21.90164063 363.01171875 22.734375 C363.20209717 23.45850586 363.39247559 24.18263672 363.58862305 24.92871094 C364 27 364 27 364 31 C363.16698364 31.11782333 362.33396729 31.23564667 361.47570801 31.35704041 C321.15556385 37.06994981 280.9056966 42.80180515 241 51 C240.13818115 51.17595703 239.2763623 51.35191406 238.38842773 51.53320312 C213.36358077 56.60994139 213.36358077 56.60994139 188.72607422 63.27416992 C179.53748541 66.00692501 172.35943112 65.17876019 163.3125 62.3125 C141.50483766 55.79339482 119.20259266 51.90389998 96.83251953 47.87304688 C92.23942178 47.04480782 87.64871891 46.20391166 83.05859375 45.359375 C75.04269533 43.88574312 67.022963 42.43470746 59 41 C57.48599609 40.72808838 57.48599609 40.72808838 55.94140625 40.45068359 C34.72704427 36.67343849 13.34578038 33.91663319 -8 31 C-7.43398133 26.55201638 -6.64850816 22.3631638 -5.37109375 18.06640625 C-5.05849609 17.00615234 -4.74589844 15.94589844 -4.42382812 14.85351562 C-4.09833984 13.76748047 -3.77285156 12.68144531 -3.4375 11.5625 C-3.10814453 10.44939453 -2.77878906 9.33628906 -2.43945312 8.18945312 C-1.6306592 5.45830842 -0.81739587 2.72858014 0 0 Z " fill="#030303" transform="translate(387,461)"/>
<path d="M0 0 C4.20082855 3.28129235 5.50423096 6.89110717 6.1953125 12.07421875 C5.5081033 22.86132078 0.12686642 29.95408263 -7.3046875 37.32421875 C-7.99175781 38.03578125 -8.67882812 38.74734375 -9.38671875 39.48046875 C-14.4436923 44.66710829 -19.78435928 49.55598938 -25.48046875 54.03515625 C-26.18558594 54.60492187 -26.89070312 55.1746875 -27.6171875 55.76171875 C-28.25269531 56.25542969 -28.88820313 56.74914062 -29.54296875 57.2578125 C-31.3201088 59.34230715 -31.84123044 60.6386345 -32.68359375 63.19140625 C-34.16377058 67.45077053 -36.54388205 70.1020905 -39.9296875 73.01171875 C-40.49381348 73.51300293 -41.05793945 74.01428711 -41.63916016 74.53076172 C-48.87977955 80.85920792 -56.5297416 86.67288295 -64.3046875 92.32421875 C-64.91505859 92.77007324 -65.52542969 93.21592773 -66.15429688 93.67529297 C-81.95446891 105.07824731 -107.93003989 123.15377894 -128.3046875 121.32421875 C-127.85467867 114.51092709 -125.8602703 109.36125444 -122.8671875 103.26171875 C-122.20046021 101.8845166 -122.20046021 101.8845166 -121.52026367 100.47949219 C-115.76720727 88.87012198 -108.55466248 78.30924002 -100.3046875 68.32421875 C-99.48355469 67.33035156 -98.66242187 66.33648438 -97.81640625 65.3125 C-89.52159624 55.35842956 -80.95978348 45.68729051 -71.6171875 36.69921875 C-70.85172607 35.93532837 -70.85172607 35.93532837 -70.07080078 35.15600586 C-67.21029099 32.47239241 -65.02309415 31.05826658 -61.16015625 30.21875 C-57.16891239 29.29271672 -55.93732766 28.62782107 -53.3046875 25.63671875 C-50.18873303 22.2666476 -46.98762954 19.23018679 -43.50390625 16.24609375 C-40.88195752 13.9547993 -38.35137551 11.57378578 -35.8046875 9.19921875 C-25.88082678 0.16754468 -13.20398528 -7.61768382 0 0 Z " fill="#FDFEFE" transform="translate(717.3046875,581.67578125)"/>
<path d="M0 0 C0.90938576 0.45688705 0.90938576 0.45688705 1.83714294 0.92300415 C3.79787524 1.91083682 5.75246617 2.91018439 7.70703125 3.91015625 C9.06206379 4.59616214 10.41737167 5.28162443 11.77294922 5.96655273 C19.26298757 9.75989582 26.71957647 13.61587071 34.14453125 17.53515625 C34.89621582 17.92993164 35.64790039 18.32470703 36.42236328 18.73144531 C39.63968266 20.42614706 42.82511448 22.14697994 45.984375 23.94921875 C52.56247993 27.58252261 57.13250028 28.86496969 64.51953125 26.97265625 C65.50953125 26.64265625 66.49953125 26.31265625 67.51953125 25.97265625 C73.69218062 24.71468987 80.28091005 23.7899003 86.51953125 24.97265625 C90.36081577 27.71493566 92.28692463 30.9904617 94.49169922 35.12207031 C96.27882921 38.3397533 98.46169447 41.2814418 100.58203125 44.28515625 C101.50616119 45.63517794 102.42792486 46.98682162 103.34765625 48.33984375 C107.80255687 54.86618649 112.33667159 61.33776658 116.86157227 67.81567383 C118.75418462 70.53015599 120.63956312 73.24940401 122.51953125 75.97265625 C123.11813965 76.83777832 123.71674805 77.70290039 124.33349609 78.59423828 C124.88344238 79.40103027 125.43338867 80.20782227 126 81.0390625 C126.48750732 81.7513501 126.97501465 82.4636377 127.47729492 83.19750977 C128.51953125 84.97265625 128.51953125 84.97265625 128.51953125 86.97265625 C124.31205508 88.59988174 120.10340245 90.22404281 115.89453125 91.84765625 C114.70472656 92.30785156 113.51492188 92.76804687 112.2890625 93.2421875 C111.13535156 93.68691406 109.98164062 94.13164062 108.79296875 94.58984375 C107.73513184 94.99831543 106.67729492 95.40678711 105.58740234 95.82763672 C102.59009978 96.946318 99.55461665 97.96096112 96.51953125 98.97265625 C96.51953125 87.09265625 96.51953125 75.21265625 96.51953125 62.97265625 C98.16953125 62.31265625 99.81953125 61.65265625 101.51953125 60.97265625 C101.51953125 60.31265625 101.51953125 59.65265625 101.51953125 58.97265625 C100.64296875 58.70114746 99.76640625 58.42963867 98.86328125 58.14990234 C95.70477575 57.03787595 92.95585314 55.7353027 90.01953125 54.13671875 C88.45912109 53.29173828 88.45912109 53.29173828 86.8671875 52.4296875 C85.21009766 51.52283203 85.21009766 51.52283203 83.51953125 50.59765625 C82.36324219 49.96988281 81.20695313 49.34210938 80.015625 48.6953125 C76.51363199 46.7937664 73.01639624 44.88361625 69.51953125 42.97265625 C67.62377341 41.93866366 65.72794566 40.90479922 63.83203125 39.87109375 C61.17129998 38.41982993 58.51091631 36.96794673 55.8515625 35.51416016 C48.75653332 31.63774541 41.64071278 27.80078167 34.51953125 23.97265625 C26.15298038 19.47437046 17.79607999 14.95924718 9.45703125 10.41015625 C8.58369141 9.93384766 7.71035156 9.45753906 6.81054688 8.96679688 C5.98103516 8.51369141 5.15152344 8.06058594 4.296875 7.59375 C3.50007324 7.16433105 2.70327148 6.73491211 1.88232422 6.29248047 C0.26732639 5.39036451 -1.32206998 4.44125348 -2.88623047 3.45361328 C-7.3324772 0.58402185 -7.3324772 0.58402185 -12.43359375 0.33203125 C-13.94179688 1.14414062 -13.94179688 1.14414062 -15.48046875 1.97265625 C-16.52170898 2.50922852 -16.52170898 2.50922852 -17.58398438 3.05664062 C-20.15850745 4.40198205 -22.69393854 5.80702952 -25.23046875 7.22265625 C-27.20661779 8.31324953 -29.18319837 9.40306112 -31.16015625 10.4921875 C-32.71041504 11.34804443 -32.71041504 11.34804443 -34.29199219 12.22119141 C-39.62780674 15.15221236 -44.99204354 18.03006598 -50.35546875 20.91015625 C-59.71527901 25.94240145 -69.06583926 30.99123949 -78.40576172 36.06030273 C-83.75627435 38.9622982 -89.11371545 41.85081134 -94.48046875 44.72265625 C-95.66018063 45.35477222 -96.83986829 45.98693338 -98.01953125 46.61914062 C-100.26308128 47.82068068 -102.50780295 49.02003658 -104.75390625 50.21679688 C-109.93227266 52.99185343 -115.01758385 55.82621883 -119.95703125 59.00976562 C-121.48046875 59.97265625 -121.48046875 59.97265625 -123.48046875 60.97265625 C-126.10546875 59.53515625 -126.10546875 59.53515625 -128.48046875 57.97265625 C-128.23802185 56.1272583 -128.23802185 56.1272583 -127.48046875 53.97265625 C-125.70326233 52.65643311 -125.70326233 52.65643311 -123.35961914 51.49902344 C-122.48523697 51.05886902 -121.6108548 50.6187146 -120.7099762 50.16522217 C-119.7589653 49.70464417 -118.80795441 49.24406616 -117.828125 48.76953125 C-116.85765732 48.28687805 -115.88718964 47.80422485 -114.88731384 47.3069458 C-112.83345563 46.28859511 -110.77626361 45.27694503 -108.71606445 44.27148438 C-105.55295168 42.72752904 -102.39983935 41.16457127 -99.24804688 39.59765625 C-97.25446013 38.61215999 -95.26033705 37.62774782 -93.265625 36.64453125 C-92.31663834 36.17585632 -91.36765167 35.7071814 -90.38990784 35.2243042 C-89.5123735 34.79675842 -88.63483917 34.36921265 -87.73071289 33.92871094 C-86.95651505 33.54994812 -86.1823172 33.1711853 -85.38465881 32.78094482 C-83.48046875 31.97265625 -83.48046875 31.97265625 -81.48046875 31.97265625 C-81.48046875 31.31265625 -81.48046875 30.65265625 -81.48046875 29.97265625 C-82.61742187 29.83988281 -83.754375 29.70710938 -84.92578125 29.5703125 C-87.91716866 29.19721161 -90.88028365 28.74963462 -93.84765625 28.21875 C-94.58886719 28.08662109 -95.33007812 27.95449219 -96.09375 27.81835938 C-97.59468806 27.54746468 -99.09471458 27.27146702 -100.59375 26.99023438 C-102.88469857 26.58723389 -105.17340432 26.26886898 -107.48046875 25.97265625 C-108.32109863 25.832229 -109.16172852 25.69180176 -110.02783203 25.54711914 C-112.78255061 25.26715958 -114.80317535 25.24640771 -117.48046875 25.97265625 C-120.59183629 28.69794455 -122.50815161 31.99986531 -124.60546875 35.53515625 C-125.89254516 37.56115892 -127.1816759 39.58585771 -128.47265625 41.609375 C-129.1284668 42.66044434 -129.78427734 43.71151367 -130.45996094 44.79443359 C-133.72184622 49.92532081 -137.22936147 54.8783696 -140.73046875 59.84765625 C-142.05973405 61.75180865 -143.38788295 63.65674093 -144.71484375 65.5625 C-145.34712891 66.46983887 -145.97941406 67.37717773 -146.63085938 68.31201172 C-150.94172519 74.51314895 -155.21223989 80.74212726 -159.48046875 86.97265625 C-158.80387207 87.1435376 -158.12727539 87.31441895 -157.43017578 87.49047852 C-150.85996374 89.2073436 -144.62224706 91.30296048 -138.35546875 93.91015625 C-137.4224292 94.2963916 -136.48938965 94.68262695 -135.52807617 95.08056641 C-48.04335491 131.84688392 -48.04335491 131.84688392 -33.48046875 160.97265625 C-36.17068125 159.68469806 -38.62079571 158.27350724 -41.0703125 156.57421875 C-82.05839884 128.48287436 -128.18962287 109.42609638 -174.48046875 91.97265625 C-173.87239211 88.8521723 -172.87852421 86.8273263 -170.99609375 84.27734375 C-170.47974365 83.57085693 -169.96339355 82.86437012 -169.43139648 82.13647461 C-168.87009033 81.38116455 -168.30878418 80.62585449 -167.73046875 79.84765625 C-166.53893086 78.22145062 -165.34752835 76.59514577 -164.15625 74.96875 C-163.54475098 74.13843262 -162.93325195 73.30811523 -162.30322266 72.45263672 C-159.48672037 68.62059409 -156.70138769 64.76626332 -153.91796875 60.91015625 C-153.38010742 60.16620605 -152.84224609 59.42225586 -152.28808594 58.65576172 C-149.15368127 54.31414949 -146.04287967 49.95708443 -142.96362305 45.57617188 C-141.98014735 44.18133622 -140.99077269 42.79063997 -139.99536133 41.40429688 C-137.30412562 37.64387978 -134.75939185 33.84305545 -132.33203125 29.90625 C-124.62857315 17.75109775 -124.62857315 17.75109775 -119.07421875 15.73828125 C-115.31359064 15.65358242 -112.14686645 16.14373155 -108.48046875 16.97265625 C-107.27390625 17.15828125 -106.06734375 17.34390625 -104.82421875 17.53515625 C-97.32180554 18.79606603 -90.14106411 20.85769574 -82.93408203 23.25854492 C-81.12531938 23.85812574 -79.30304594 24.41648012 -77.48046875 24.97265625 C-76.5471875 25.28589844 -75.61390625 25.59914063 -74.65234375 25.921875 C-69.54291082 26.00367627 -65.72573452 23.52784915 -61.29296875 21.16015625 C-60.32262695 20.65822754 -59.35228516 20.15629883 -58.35253906 19.63916016 C-55.3863256 18.09992279 -52.43249299 16.53890383 -49.48046875 14.97265625 C-47.80244067 14.0904658 -46.12407639 13.20891444 -44.4453125 12.328125 C-41.33276447 10.69118363 -38.22079641 9.05314427 -35.109375 7.4140625 C-34.35285645 7.01590332 -33.59633789 6.61774414 -32.81689453 6.20751953 C-31.2112764 5.35890756 -29.60821533 4.50544529 -28.00732422 3.64794922 C-25.56862696 2.34499219 -23.11971818 1.06334568 -20.66796875 -0.21484375 C-19.93288086 -0.61396973 -19.19779297 -1.0130957 -18.44042969 -1.42431641 C-17.74594727 -1.78187012 -17.05146484 -2.13942383 -16.3359375 -2.5078125 C-15.43331177 -2.98577271 -15.43331177 -2.98577271 -14.51245117 -3.47338867 C-9.26430515 -4.90412799 -4.60027268 -2.33050505 0 0 Z " fill="#262626" transform="translate(580.48046875,336.02734375)"/>
<path d="M0 0 C7.16734055 4.62207582 11.55030254 11.19200883 13.62890625 19.40625 C15.34716422 28.6454076 13.5559488 35.68851476 9.10546875 43.96875 C4.25143806 50.74645199 -2.59302548 55.58516571 -10.89453125 56.96875 C-21.60566102 57.85902572 -28.90139772 56.47948662 -37.20703125 49.59375 C-42.73085368 44.45428898 -46.57633306 38.89043937 -47.1953125 31.26171875 C-47.37242044 19.18032226 -46.01900237 12.19218831 -37.47265625 3.24609375 C-26.79885746 -6.18242851 -12.28860743 -6.68905642 0 0 Z " fill="#F7F8F8" transform="translate(449.89453125,578.03125)"/>
<path d="M0 0 C3.53125 0.5 3.53125 0.5 7.125 1.3125 C8.3315625 1.498125 9.538125 1.68375 10.78125 1.875 C21.12249173 3.61302382 32.87368356 6.23013122 42.125 11.3125 C39.47882618 13.48614278 37.50706174 14.74256865 34.125 15.3125 C32.14550781 15.07470703 32.14550781 15.07470703 30.078125 14.5703125 C29.315 14.39113281 28.551875 14.21195312 27.765625 14.02734375 C26.58226562 13.73537109 26.58226562 13.73537109 25.375 13.4375 C19.6315674 12.04950379 14.01543933 10.83418535 8.125 10.3125 C7.30950684 10.18238525 6.49401367 10.05227051 5.65380859 9.91821289 C2.88402987 9.63317329 0.82489109 9.60964492 -1.875 10.3125 C-4.99037424 13.03238304 -6.90310005 16.34041229 -9 19.875 C-10.28707641 21.90100267 -11.57620715 23.92570146 -12.8671875 25.94921875 C-13.52299805 27.00028809 -14.17880859 28.05135742 -14.85449219 29.13427734 C-18.11637747 34.26516456 -21.62389272 39.21821335 -25.125 44.1875 C-26.4542653 46.0916524 -27.7824142 47.99658468 -29.109375 49.90234375 C-29.74166016 50.80968262 -30.37394531 51.71702148 -31.02539062 52.65185547 C-35.33625644 58.8529927 -39.60677114 65.08197101 -43.875 71.3125 C-43.19840332 71.48338135 -42.52180664 71.6542627 -41.82470703 71.83032227 C-35.25449499 73.54718735 -29.01677831 75.64280423 -22.75 78.25 C-21.81696045 78.63623535 -20.8839209 79.0224707 -19.92260742 79.42041016 C67.56211384 116.18672767 67.56211384 116.18672767 82.125 145.3125 C79.4347875 144.02454181 76.98467304 142.61335099 74.53515625 140.9140625 C33.54706991 112.82271811 -12.58415412 93.76594013 -58.875 76.3125 C-58.26692336 73.19201605 -57.27305546 71.16717005 -55.390625 68.6171875 C-54.8742749 67.91070068 -54.3579248 67.20421387 -53.82592773 66.47631836 C-53.26462158 65.7210083 -52.70331543 64.96569824 -52.125 64.1875 C-50.93346211 62.56129437 -49.7420596 60.93498952 -48.55078125 59.30859375 C-47.93928223 58.47827637 -47.3277832 57.64795898 -46.69775391 56.79248047 C-43.88125162 52.96043784 -41.09591894 49.10610707 -38.3125 45.25 C-37.50570801 44.13407471 -37.50570801 44.13407471 -36.68261719 42.99560547 C-33.54821252 38.65399324 -30.43741092 34.29692818 -27.3581543 29.91601562 C-26.3746786 28.52117997 -25.38530394 27.13048372 -24.38989258 25.74414062 C-21.69865687 21.98372353 -19.1539231 18.1828992 -16.7265625 14.24609375 C-7.80941858 0.17588781 -7.80941858 0.17588781 0 0 Z " fill="#070707" transform="translate(464.875,351.6875)"/>
<path d="M0 0 C4.96265394 -1.03431672 8.89053873 -1.28689535 13.77880859 0.47802734 C18.72902517 5.05539548 21.90851466 11.15857649 25.24951172 16.93896484 C27.49436964 20.66605973 30.10350015 24.05363254 32.77880859 27.47802734 C37.72996305 33.95336712 42.33965769 40.62354929 46.89916992 47.37866211 C51.07673333 53.53563537 55.45792105 59.50922821 59.99755859 65.40380859 C62.24329356 68.33625591 64.1984938 71.14311497 65.77880859 74.47802734 C57.46805116 78.381258 49.02022494 81.83371573 40.46630859 85.16552734 C39.21816902 85.65552566 37.9701217 86.14575904 36.72216797 86.63623047 C31.43917424 88.70324097 26.17420871 90.72069157 20.77880859 92.47802734 C19.58593448 88.60118647 18.77880859 85.56180811 18.77880859 81.47802734 C19.44936279 81.21586426 20.11991699 80.95370117 20.81079102 80.68359375 C23.86270845 79.4902716 26.91450961 78.29665238 29.96630859 77.10302734 C31.02140625 76.69052734 32.07650391 76.27802734 33.16357422 75.85302734 C34.18515625 75.45341797 35.20673828 75.05380859 36.25927734 74.64208984 C37.19666748 74.2755127 38.13405762 73.90893555 39.09985352 73.53125 C40.88912248 72.8278046 42.6682673 72.09805647 44.4362793 71.34277344 C46.77880859 70.47802734 46.77880859 70.47802734 49.77880859 70.47802734 C43.8719768 60.79615268 37.3026577 51.59042451 30.77587891 42.32226562 C26.55920399 36.31685453 22.38117355 30.28444052 18.19702148 24.25634766 C16.9499082 22.46131555 15.69458817 20.6719469 14.4296875 18.8894043 C12.77880859 16.47802734 12.77880859 16.47802734 11.53027344 14.26000977 C10.32222071 12.03547283 10.32222071 12.03547283 7.77880859 9.47802734 C4.61426955 8.73480247 1.73412202 9.03680878 -1.47119141 9.41552734 C-2.27943359 9.47804688 -3.08767578 9.54056641 -3.92041016 9.60498047 C-8.81649959 10.03191947 -13.50769341 10.89855012 -18.27172852 12.09619141 C-22.30441716 12.88606305 -25.22201354 12.1353812 -28.59619141 9.91552734 C-29.13244141 9.44115234 -29.66869141 8.96677734 -30.22119141 8.47802734 C-22.11635627 4.19622765 -13.62191738 2.36857396 -4.64160156 0.88964844 C-3.08853602 0.62553017 -1.54010159 0.33144855 0 0 Z " fill="#060606" transform="translate(659.22119140625,352.52197265625)"/>
<path d="M0 0 C4.78061789 1.89001172 7.56321684 5.59669008 10 10 C12.21816875 15.1885193 12.30200388 19.89475329 12.25 25.4375 C12.26160156 26.66823242 12.26160156 26.66823242 12.2734375 27.92382812 C12.25740821 32.94500366 12.15314046 37.4157037 10 42 C4.48825233 44.63258474 -1.47919357 44.33378998 -7.5 44.3125 C-8.41136719 44.32861328 -9.32273437 44.34472656 -10.26171875 44.36132812 C-18.27133816 44.36710707 -24.013351 42.64455477 -30 37 C-32.51973495 32.77966655 -32.91424767 28.80193638 -32 24 C-29.2766176 20.18726464 -29.2766176 20.18726464 -26 19 C-21.63243178 18.60624533 -17.37149044 18.70813491 -13 19 C-13.05220703 17.67935547 -13.05220703 17.67935547 -13.10546875 16.33203125 C-13.13253906 15.17058594 -13.15960938 14.00914062 -13.1875 12.8125 C-13.23970703 11.08966797 -13.23970703 11.08966797 -13.29296875 9.33203125 C-12.97323533 5.6955965 -12.18158273 3.8894086 -10 1 C-6.79955766 -0.60022117 -3.48073785 -0.35613727 0 0 Z " fill="#020202" transform="translate(439,578)"/>
<path d="M0 0 C3.3 0.99 6.6 1.98 10 3 C8.66511872 6.59391114 7.03977277 9.75490696 5 13 C6.27875 13.061875 7.5575 13.12375 8.875 13.1875 C34.55444596 15.91483426 62.41772207 27.77924932 86 38 C87.32233643 38.56968506 87.32233643 38.56968506 88.67138672 39.15087891 C110.41084514 48.58613065 129.9527217 59.90201449 149 74 C148.01 74.495 148.01 74.495 147 75 C144.77954102 73.97119141 144.77954102 73.97119141 142.00390625 72.3515625 C140.98055176 71.76286377 139.95719727 71.17416504 138.90283203 70.56762695 C137.80052246 69.92656006 136.69821289 69.28549316 135.5625 68.625 C94.42184313 45.19484438 49.67236607 29.75053039 3.1328125 21.55322266 C-1.58150554 20.72072229 -6.29073855 19.8605727 -11 19 C-9.84077356 15.94614853 -8.62424565 13.18277549 -6.8359375 10.44921875 C-6.43632812 9.83369141 -6.03671875 9.21816406 -5.625 8.58398438 C-5.2125 7.95814453 -4.8 7.33230469 -4.375 6.6875 C-3.95476562 6.04232422 -3.53453125 5.39714844 -3.1015625 4.73242188 C-2.07161759 3.15239276 -1.03634372 1.57583953 0 0 Z " fill="#0B0B0B" transform="translate(403,433)"/>
<path d="M0 0 C5.61 0 11.22 0 17 0 C17 7 17 7 14.5625 9.625 C11.94231237 11.55105678 9.15569076 12.92919587 6.25 14.375 C3.05018929 16.03768617 3.05018929 16.03768617 0.98046875 18.87109375 C0.33875745 20.99605063 0.33875745 20.99605063 0 24 C1.32 22.35 2.64 20.7 4 19 C4.99 19.33 5.98 19.66 7 20 C9.79207427 20 11.52858057 19.2974952 14 18 C15.36078035 15.47627099 15.36078035 15.47627099 16 13 C16.33 13.66 16.66 14.32 17 15 C21.95 15 26.9 15 32 15 C32 20.61 32 26.22 32 32 C27.05 32 22.1 32 17 32 C17 36.95 17 41.9 17 47 C11.39 47 5.78 47 0 47 C0 44.36 0 41.72 0 39 C2.046875 36.9765625 2.046875 36.9765625 4.75 35.625 C5.63171875 35.16351563 6.5134375 34.70203125 7.421875 34.2265625 C9.00204312 33.47478555 10.59878544 32.75542567 12.21875 32.09375 C14.54489534 30.66541514 14.92239739 29.4405681 15.75 26.875 C15.99234375 26.15054687 16.2346875 25.42609375 16.484375 24.6796875 C16.65453125 24.12539063 16.8246875 23.57109375 17 23 C15.68 24.65 14.36 26.3 13 28 C12.29875 27.773125 11.5975 27.54625 10.875 27.3125 C7.08290114 26.90031534 5.20440803 28.03365871 2 30 C1.67 30.66 1.34 31.32 1 32 C-4.28 32 -9.56 32 -15 32 C-15 26.39 -15 20.78 -15 15 C-10.05 15 -5.1 15 0 15 C0 10.05 0 5.1 0 0 Z " fill="#36AF9F" transform="translate(566,371)"/>
<path d="M0 0 C2.72452043 2.60743969 4.9827063 5.2137503 7.09375 8.3359375 C7.64933594 9.15320313 8.20492187 9.97046875 8.77734375 10.8125 C9.34582031 11.658125 9.91429687 12.50375 10.5 13.375 C11.06847656 14.21289062 11.63695312 15.05078125 12.22265625 15.9140625 C13.32381446 17.53897346 14.42161383 19.16616699 15.515625 20.79589844 C16.43384369 22.15933237 17.3594834 23.51784016 18.296875 24.86816406 C21 28.78721941 21 28.78721941 21 31 C16.79252383 32.62722549 12.5838712 34.25138656 8.375 35.875 C7.18519531 36.33519531 5.99539063 36.79539062 4.76953125 37.26953125 C3.61582031 37.71425781 2.46210937 38.15898437 1.2734375 38.6171875 C0.21560059 39.02565918 -0.84223633 39.43413086 -1.93212891 39.85498047 C-4.92943147 40.97366175 -7.9649146 41.98830487 -11 43 C-11 31.12 -11 19.24 -11 7 C-7.7 5.35 -4.4 3.7 -1 2 C-0.67 1.34 -0.34 0.68 0 0 Z " fill="#FAFBFB" transform="translate(688,392)"/>
<path d="M0 0 C0.495 0.99 0.495 0.99 1 2 C0.34 2.33 -0.32 2.66 -1 3 C-1 5.97 -1 8.94 -1 12 C-8.05344906 15.57279205 -15.11213084 19.12724445 -22.26953125 22.48828125 C-58.646066 39.49836083 -58.646066 39.49836083 -91 63 C-91.66 62.67 -92.32 62.34 -93 62 C-85.57904219 54.1173697 -77.62278018 47.49912306 -69 41 C-68.41089844 40.55011719 -67.82179688 40.10023438 -67.21484375 39.63671875 C-46.56019885 23.88471484 -23.87802512 10.27205609 0 0 Z " fill="#080909" transform="translate(674,436)"/>
<path d="M0 0 C0 2.64 0 5.28 0 8 C-0.55647217 8.08975098 -1.11294434 8.17950195 -1.6862793 8.27197266 C-12.4905937 10.04599667 -23.14162232 12.0928491 -33.6875 15.0625 C-34.57719482 15.30758301 -35.46688965 15.55266602 -36.38354492 15.80517578 C-37.20959229 16.04606934 -38.03563965 16.28696289 -38.88671875 16.53515625 C-39.61076904 16.745354 -40.33481934 16.95555176 -41.08081055 17.17211914 C-43.3298339 18.14228047 -44.43369882 19.1214713 -46 21 C-46.33131881 23.93397683 -46.48870106 26.66709481 -46.51171875 29.60546875 C-46.52966995 30.44467361 -46.54762115 31.28387848 -46.56611633 32.14851379 C-46.62028563 34.82812479 -46.65413573 37.50755702 -46.6875 40.1875 C-46.72066729 42.00458221 -46.7551564 43.8216408 -46.79101562 45.63867188 C-46.87601572 50.09231905 -46.94279502 54.54591259 -47 59 C-47.99 58.67 -48.98 58.34 -50 58 C-51.12658279 55.74683441 -51.14325754 54.48197933 -51.17700195 51.98095703 C-51.18983719 51.15314728 -51.20267242 50.32533752 -51.21589661 49.47244263 C-51.22328354 48.57661469 -51.23067047 47.68078674 -51.23828125 46.7578125 C-51.246353 45.8378952 -51.25442474 44.91797791 -51.26274109 43.97018433 C-51.27658357 42.02164598 -51.28730499 40.07308337 -51.29516602 38.12451172 C-51.31239171 35.14373938 -51.35627737 32.16407244 -51.40039062 29.18359375 C-51.41051635 27.29167483 -51.41903283 25.39974648 -51.42578125 23.5078125 C-51.44328934 22.61603302 -51.46079742 21.72425354 -51.47883606 20.80545044 C-51.45714176 14.62014841 -51.45714176 14.62014841 -49.14794922 11.48754883 C-40.74154772 5.66574792 -28.81146137 4.18064278 -19 2.1875 C-17.92596924 1.96843994 -16.85193848 1.74937988 -15.74536133 1.52368164 C-10.40646874 0.48731575 -5.43899832 -0.27040475 0 0 Z " fill="#222222" transform="translate(551,391)"/>
<path d="M0 0 C1.14501953 1.52880859 1.14501953 1.52880859 2.3828125 3.6484375 C2.82753906 4.40640625 3.27226563 5.164375 3.73046875 5.9453125 C4.19066406 6.74710937 4.65085937 7.54890625 5.125 8.375 C5.59292969 9.1690625 6.06085937 9.963125 6.54296875 10.78125 C10 16.7277469 10 16.7277469 10 19 C8.7109375 19.20753906 7.421875 19.41507812 6.09375 19.62890625 C-7.61589731 21.89869031 -21.15540865 24.70125678 -34.69726562 27.80102539 C-35.37435577 27.95383972 -36.05144592 28.10665405 -36.74905396 28.26409912 C-38.60502781 28.68312014 -40.45954496 29.10857825 -42.31396484 29.53442383 C-43.64355225 29.76488403 -43.64355225 29.76488403 -45 30 C-46 29 -46 29 -46.0625 25.9375 C-46.041875 24.968125 -46.02125 23.99875 -46 23 C-39.24388482 20.64042045 -32.421931 18.68507131 -25.5 16.875 C-24.51902344 16.61074219 -23.53804687 16.34648437 -22.52734375 16.07421875 C-16.66928371 14.53755054 -11.03599452 13.51131359 -5 13 C-5.38349609 12.49186768 -5.76699219 11.98373535 -6.16210938 11.46020508 C-10 6.375 -10 6.375 -10 3 C-8.70990357 2.49596232 -7.41786211 1.99690074 -6.125 1.5 C-5.40570312 1.2215625 -4.68640625 0.943125 -3.9453125 0.65625 C-2 0 -2 0 0 0 Z " fill="#080808" transform="translate(728,433)"/>
<path d="M0 0 C2.3359375 0.3359375 2.3359375 0.3359375 4.40625 2.3984375 C5.42332031 3.8525 5.42332031 3.8525 6.4609375 5.3359375 C6.83275146 5.85833008 7.20456543 6.38072266 7.58764648 6.91894531 C8.85565665 8.71232229 10.09606389 10.52300538 11.3359375 12.3359375 C12.34445496 13.78947698 13.35359209 15.24258668 14.36328125 16.6953125 C17.04149498 20.56165746 19.69404251 24.44469778 22.3359375 28.3359375 C21.3459375 28.8309375 21.3459375 28.8309375 20.3359375 29.3359375 C18.27316284 28.5450592 18.27316284 28.5450592 15.70263672 27.24633789 C14.74179169 26.76576431 13.78094666 26.28519073 12.79098511 25.79005432 C11.75136627 25.25992233 10.71174744 24.72979034 9.640625 24.18359375 C8.57804474 23.64947372 7.51546448 23.1153537 6.42068481 22.56504822 C3.01362529 20.8502856 -0.38771781 19.12450374 -3.7890625 17.3984375 C-6.09208102 16.23690246 -8.39546185 15.0760855 -10.69921875 13.91601562 C-16.35840375 11.06432161 -22.01292904 8.20355093 -27.6640625 5.3359375 C-21.37351636 -0.95460864 -8.2422821 1.03934936 0 0 Z " fill="#F9F9F9" transform="translate(664.6640625,360.6640625)"/>
<path d="M0 0 C-0.28459863 2.98288189 -0.45946129 4.50573081 -2 7 C-5.46388153 9.04636451 -9.22809771 10.08369309 -13.0625 11.25 C-15.34759652 12.00668186 -17.63009315 12.77125262 -19.91015625 13.54296875 C-21.08465332 13.93919434 -22.25915039 14.33541992 -23.46923828 14.74365234 C-32.27135893 17.87570274 -40.74331259 21.86128326 -49.23632812 25.73925781 C-51.68831086 26.85781248 -54.14720457 27.95881448 -56.609375 29.0546875 C-65.78433544 33.19647221 -74.48109366 37.99795219 -83.13574219 43.14038086 C-83.98555664 43.64061768 -84.83537109 44.14085449 -85.7109375 44.65625 C-86.46681152 45.10806641 -87.22268555 45.55988281 -88.00146484 46.02539062 C-90 47 -90 47 -93 47 C-71.15093819 28.97851106 -29.38188811 0 0 0 Z " fill="#0C0C0C" transform="translate(670,461)"/>
<path d="M0 0 C0.66 0 1.32 0 2 0 C2.01981934 1.14065918 2.03963867 2.28131836 2.06005859 3.45654297 C2.13600567 7.67975323 2.22473928 11.90261399 2.31738281 16.12548828 C2.35571777 17.95484529 2.39056263 19.78427885 2.421875 21.61376953 C2.46742805 24.24018759 2.52543731 26.86607659 2.5859375 29.4921875 C2.59748871 30.31306854 2.60903992 31.13394958 2.62094116 31.97970581 C2.5572544 36.4624644 2.5572544 36.4624644 5 40 C5.50244141 42.24316406 5.50244141 42.24316406 5.8515625 45.015625 C5.98046875 46.01980469 6.109375 47.02398437 6.2421875 48.05859375 C6.36851562 49.11175781 6.49484375 50.16492188 6.625 51.25 C6.7590625 52.28769531 6.893125 53.32539063 7.03125 54.39453125 C8.28999544 64.45165044 8.28999544 64.45165044 8 69 C7 70 7 70 4.93359375 70.09765625 C3.69802734 70.08025391 3.69802734 70.08025391 2.4375 70.0625 C1.19806641 70.04896484 1.19806641 70.04896484 -0.06640625 70.03515625 C-1.02353516 70.01775391 -1.02353516 70.01775391 -2 70 C-2 69.34 -2 68.68 -2 68 C-2.66 68 -3.32 68 -4 68 C-4.495 68.99 -4.495 68.99 -5 70 C-5.66 69.34 -6.32 68.68 -7 68 C-6.73225067 64.51925872 -6.17022425 61.47875571 -5 58.1875 C-3.15035306 52.29175039 -2.93421808 46.15060955 -3 40 C-1.515 39.505 -1.515 39.505 0 39 C0 26.13 0 13.26 0 0 Z " fill="#3CB4A4" transform="translate(675,399)"/>
<path d="M0 0 C7.25500946 0.62099246 14.07523431 2.07971806 21.125 3.875 C22.17042969 4.13152344 23.21585938 4.38804687 24.29296875 4.65234375 C38.13463366 8.13463366 38.13463366 8.13463366 42 12 C42 13.32 42 14.64 42 16 C37.22724993 14.94589569 32.458123 13.87942447 27.6953125 12.78125 C26.78136719 12.57113281 25.86742187 12.36101562 24.92578125 12.14453125 C23.06601254 11.716551 21.2066328 11.28687681 19.34765625 10.85546875 C12.92769792 9.38366396 6.48941175 8.12585869 0 7 C0 4.69 0 2.38 0 0 Z " fill="#202020" transform="translate(598,392)"/>
<path d="M0 0 C0.66 0.33 1.32 0.66 2 1 C0.61469424 5.15591729 -2.23367338 6.17786565 -5.875 8.1875 C-6.51308594 8.55552734 -7.15117188 8.92355469 -7.80859375 9.30273438 C-12.60262059 12 -12.60262059 12 -16 12 C-13.89674758 10.37380483 -11.79244271 8.74900468 -9.6875 7.125 C-9.09259766 6.66480469 -8.49769531 6.20460938 -7.88476562 5.73046875 C-5.29971995 3.73752851 -2.71700932 1.81133955 0 0 Z " fill="#2C2C2C" transform="translate(593,496)"/>
<path d="M0 0 C0.66 0.33 1.32 0.66 2 1 C2 1.66 2 2.32 2 3 C0.13671875 4.7265625 0.13671875 4.7265625 -2.3125 6.625 C-3.11300781 7.25664062 -3.91351562 7.88828125 -4.73828125 8.5390625 C-7 10 -7 10 -10 10 C-6.7 6.7 -3.4 3.4 0 0 Z " fill="#2E2E2E" transform="translate(591,488)"/>
<path d="M0 0 C0.66 0 1.32 0 2 0 C2 1.98 2 3.96 2 6 C1.34 6 0.68 6 0 6 C-0.33 6.99 -0.66 7.98 -1 9 C-1.66 8.34 -2.32 7.68 -3 7 C-2.01 4.69 -1.02 2.38 0 0 Z " fill="#2C7C71" transform="translate(671,460)"/>
<path d="M0 0 C4.28477792 2.30718811 7.72291137 4.32966073 11 8 C7.2089881 6.55049545 3.6125362 4.84827434 0 3 C0 2.01 0 1.02 0 0 Z " fill="#313131" transform="translate(541,500)"/>
<path d="M0 0 C0.66 0.33 1.32 0.66 2 1 C-0.46153846 5.8 -0.46153846 5.8 -3.1875 6.8125 C-3.785625 6.874375 -4.38375 6.93625 -5 7 C-1.125 1.125 -1.125 1.125 0 0 Z " fill="#161616" transform="translate(597,483)"/>
</svg>
